<svg id="Logo" xmlns="http://www.w3.org/2000/svg" width="176.664" height="40" viewBox="0 0 176.664 40">
                <path id="name" d="M16662.682,5580.265v-2.3h-9.012v-11.9h1.533v10.457h5.865v-10.457h1.529v10.457h1.617v3.737Zm22.953-2.3v-4.419h-3.4l-2.635,4.419h-1.785l2.8-4.587a3.64,3.64,0,0,1-2.885-3.569c0-2.112,1.611-3.741,4.33-3.741h5.1v11.9Zm-6.377-8.156c0,1.357.918,2.292,2.8,2.292h3.574v-4.587h-3.574C16680.176,5567.517,16679.258,5568.451,16679.258,5569.813Zm-5.27,8.156V5568.2l.018-.167h-.033l-6.021,9.941h-2.039v-11.9h1.533v9.773l-.021.172h.033l6.02-9.945h2.041v11.9Zm-23.543,0-.939-3.481h-5.865l-.934,3.481h-1.529l3.063-11.9h4.672l3.063,11.9Zm-6.465-4.926h5.186l-1.445-5.526h-2.295Zm-12.832,4.926v-11.9h5.016c2.719,0,4.42,1.684,4.42,3.909s-1.7,3.913-4.42,3.913h-3.486v4.076Zm1.529-5.521h3.486c1.885,0,2.891-1.022,2.891-2.467s-1.006-2.463-2.891-2.463h-3.486Zm-10.795,5.521v-11.9h7.564v1.445h-6.037v10.452Zm-10.369,0v-11.9h8.328v1.445h-6.8v3.741h5.525v1.441h-5.525v3.829h6.8v1.441Zm-7.139,0v-10.452h-4.08v-1.445h9.689v1.445h-4.08v10.452Zm-7.143,0v-5.27h-6.377v5.27h-1.529v-11.9h1.529v5.187h6.377v-5.187h1.529v11.9Zm-12.154,0V5568.2l.018-.167h-.033l-6.02,9.941H16577v-11.9h1.533v9.773l-.021.172h.035l6.02-9.945h2.039v11.9Zm94.588-14.971v-14.4h-6.3V5542h20.1v6.6h-6.3V5563Zm-16.713,0v-6.9l.449-3h-.3l-6,9.9h-8.1v-21h7.5v6.9l-.453,3h.3l6-9.9h8.1v21Zm-25.053,0v-7.2h-6v7.2h-7.5v-21h7.5v7.2h6V5542h7.5v21Zm-22.5,0-1.047-3.9h-6.451l-1.053,3.9H16592.6l-3.451-14.4h-1.35l-3.447,14.4H16577l5.7-21h11.848l5.258,19.894,5.541-19.894h11.852l5.7,21ZM16600.1,5563Zm9-9.149h4.051l-1.348-5.547h-1.2Z" transform="translate(-16517.301 -5541)" fill="#fff" stroke="rgba(0,0,0,0)" stroke-width="1"/>
                <rect id="sign" width="40" height="40" fill="#fff"/>
              </svg>