<svg xmlns="http://www.w3.org/2000/svg" width="57.664" height="20" viewBox="0 0 57.664 20">
  <path id="Контур_160" data-name="Контур 160" d="M4.267,7.669A4.318,4.318,0,0,1,7.756,5.891l.327.009h-.01a4.617,4.617,0,0,1,4.738,4.959v8.765H8.554V12.359c0-1.576-.817-2.451-2.114-2.451-1.182,0-2.172.817-2.172,2.537v7.179H0V0H4.267ZM29.1,19.635H25.007V18.184a4.57,4.57,0,0,1-3.642,1.807h-.2c-3.566,0-6.209-3.1-6.209-7.054S17.6,5.911,21.182,5.911h.183a4.575,4.575,0,0,1,3.642,1.8l.01.01V6.276h4.094V19.635Zm-9.822-6.689a2.864,2.864,0,1,0,2.864-2.864,2.859,2.859,0,0,0-2.864,2.864m26.891-.01c0,3.94-2.652,7.054-6.218,7.054L39.74,20a4.512,4.512,0,0,1-3.6-1.778l-.01-.01v1.432H32.033V0H36.29V7.554a4.524,4.524,0,0,1,3.489-1.643h.192c3.546,0,6.2,3.085,6.2,7.025m-10.082,0a2.864,2.864,0,1,0,2.864-2.864,2.859,2.859,0,0,0-2.864,2.864M57.626,6.112l-.365,4.248A7.083,7.083,0,0,0,55.127,10h-.01c-.1-.01-.2-.019-.307-.019a2.166,2.166,0,0,0-2.162,2.162,2.709,2.709,0,0,0,.019.279v7.218H48.4V6.285h4.094V7.823a3.947,3.947,0,0,1,3.383-1.913l.279.01h0a5.55,5.55,0,0,1,1.509.212Z" fill="#1b2d4d"/>
</svg>
