<svg xmlns="http://www.w3.org/2000/svg" width="42" height="42" viewBox="0 0 42 42">
  <path id="Контур_161" data-name="Контур 161" d="M21,0A21,21,0,1,0,42,21,21,21,0,0,0,21,0M19.975,29.612H16.6V22.733a10.4,10.4,0,0,0-.189-2.6,1.679,1.679,0,0,0-.679-.875,2.127,2.127,0,0,0-1.22-.329,2.744,2.744,0,0,0-1.5.418,2.382,2.382,0,0,0-.969,1.257,7.464,7.464,0,0,0-.308,2.481v6.522H8.355V11.1h3.379v7.143a4.949,4.949,0,0,1,3.9-1.949,4.845,4.845,0,0,1,2.1.444,3.434,3.434,0,0,1,1.413,1.126,4.126,4.126,0,0,1,.65,1.523,13.825,13.825,0,0,1,.174,2.584Zm13.3,0H29.9V22.733a10.291,10.291,0,0,0-.193-2.6,1.672,1.672,0,0,0-.679-.875,2.12,2.12,0,0,0-1.22-.329,2.746,2.746,0,0,0-1.5.418,2.42,2.42,0,0,0-.969,1.257,7.692,7.692,0,0,0-.306,2.481v6.522H21.664V11.1H25.04v7.143a4.95,4.95,0,0,1,3.9-1.949,4.879,4.879,0,0,1,2.105.444,3.434,3.434,0,0,1,1.409,1.126,4.109,4.109,0,0,1,.65,1.523,13.825,13.825,0,0,1,.174,2.584Z" fill="#1b2d4d" fill-rule="evenodd"/>
</svg>
